<svg xmlns="http://www.w3.org/2000/svg" xmlns:xlink="http://www.w3.org/1999/xlink" width="1920" zoomAndPan="magnify" viewBox="0 0 1440 809.999993" height="1080" preserveAspectRatio="xMidYMid meet" version="1.0"><defs><clipPath id="e21c8a1f89"><path d="M 390.554688 90.316406 L 1019.804688 90.316406 L 1019.804688 719.566406 L 390.554688 719.566406 Z M 390.554688 90.316406 " clip-rule="nonzero"/></clipPath></defs><g clip-path="url(#e21c8a1f89)"><path fill="#004aad" d="M 705.28125 108.5 C 541.769531 108.5 408.75 241.53125 408.75 405.03125 C 408.75 568.542969 541.769531 701.5625 705.28125 701.5625 C 868.78125 701.5625 1001.808594 568.542969 1001.808594 405.03125 C 1001.808594 241.53125 868.78125 108.5 705.28125 108.5 Z M 705.28125 719.765625 C 531.742188 719.765625 390.554688 578.578125 390.554688 405.03125 C 390.554688 231.492188 531.742188 90.304688 705.28125 90.304688 C 878.816406 90.304688 1020.003906 231.492188 1020.003906 405.03125 C 1020.003906 578.578125 878.816406 719.765625 705.28125 719.765625 " fill-opacity="1" fill-rule="nonzero"/></g><path fill="#004aad" d="M 860.25 405.03125 L 619.191406 265.859375 L 619.191406 544.214844 L 860.25 405.03125 L 619.191406 265.859375 L 619.191406 544.214844 L 860.25 405.03125 " fill-opacity="1" fill-rule="nonzero"/></svg>